<svg id="Capa_1" enable-background="new 0 0 512 512" height="512" viewBox="0 0 512 512" width="512" xmlns="http://www.w3.org/2000/svg" xmlns:xlink="http://www.w3.org/1999/xlink"><linearGradient id="SVGID_1_" gradientUnits="userSpaceOnUse" x1="256" x2="256" y1="512" y2="0"><stop offset="0" stop-color="#ffc2cc"/><stop offset="1" stop-color="#fff2f4"/></linearGradient><linearGradient id="SVGID_2_" gradientUnits="userSpaceOnUse" x1="256" x2="256" y1="407" y2="105"><stop offset="0" stop-color="#ffa68d"/><stop offset="1" stop-color="#fd3a84"/></linearGradient><g><g><circle cx="256" cy="256" fill="url(#SVGID_1_)" r="256"/></g><g><g><path d="m329.104 191.247c-12.819-3.218-27.302-2.221-40.71 2.958-11 4.077-21.862 10.877-32.395 20.272-10.533-9.394-21.377-16.186-32.291-20.228-13.581-5.248-28.133-6.167-40.727-3.027-30.02 7.173-50.981 35.789-50.981 69.575 0 51.759 50.199 83.363 119.946 144.026 1.68 1.449 3.742 2.177 5.821 2.177s4.14-.72 5.803-2.168l9.822-8.527c66.421-57.645 106.608-88.486 106.608-135.508 0-33.786-20.961-62.402-50.896-69.55zm-64.234 135.812c0 4.909-3.967 8.882-8.87 8.882s-8.87-3.973-8.87-8.882v-53.294c0-4.91 3.967-8.882 8.87-8.882s8.87 3.973 8.87 8.882zm-66.764-155.407c10.723 0 21.793 2.082 31.996 6.02.123.046.247.123.37.169 3.126-11.235 13.326-19.547 25.528-19.547 12.211 0 22.417 8.324 25.536 19.571.238-.09.471-.234.709-.323 10.065-3.886 20.771-5.907 31.58-5.907 6.721 0 13.304.807 19.593 2.377.469.112.886.336 1.351.457-5.185-39.1-38.332-69.469-78.769-69.469-40.445 0-73.598 30.381-78.771 69.492.561-.147 1.064-.414 1.631-.55 6.045-1.509 12.576-2.29 19.246-2.29z" fill="url(#SVGID_2_)"/></g></g></g></svg>